<svg width="135" height="16" viewBox="0 0 135 16" fill="none" xmlns="http://www.w3.org/2000/svg">
<rect x="0.75" y="0.75" width="14.5" height="14.5" rx="4.25" stroke="#7F7FD5" stroke-width="1.5"/>
<path d="M5 7.22863L8.27277 11L11 5" stroke="#7F7FD5" stroke-linecap="round" stroke-linejoin="round"/>
<path d="M28.3 3.6V4.92H25.936V12H24.556V4.92H22.18V3.6H28.3ZM30.9903 12.156C30.1103 12.156 29.3623 11.852 28.7463 11.244C28.1303 10.636 27.8223 9.888 27.8223 9C27.8223 8.112 28.1303 7.364 28.7463 6.756C29.3623 6.148 30.1103 5.844 30.9903 5.844C31.8783 5.844 32.6263 6.148 33.2343 6.756C33.8503 7.364 34.1583 8.112 34.1583 9C34.1583 9.888 33.8503 10.636 33.2343 11.244C32.6263 11.852 31.8783 12.156 30.9903 12.156ZM29.6583 10.356C30.0183 10.716 30.4623 10.896 30.9903 10.896C31.5183 10.896 31.9623 10.716 32.3223 10.356C32.6823 9.996 32.8623 9.544 32.8623 9C32.8623 8.456 32.6823 8.004 32.3223 7.644C31.9623 7.284 31.5183 7.104 30.9903 7.104C30.4623 7.104 30.0183 7.284 29.6583 7.644C29.2983 8.004 29.1183 8.456 29.1183 9C29.1183 9.544 29.2983 9.996 29.6583 10.356ZM38.561 7.248H37.073V10.128C37.073 10.376 37.129 10.556 37.241 10.668C37.353 10.772 37.517 10.832 37.733 10.848C37.957 10.856 38.233 10.852 38.561 10.836V12C37.569 12.12 36.857 12.036 36.425 11.748C35.993 11.452 35.777 10.912 35.777 10.128V7.248H34.673V6H35.777V4.704L37.073 4.32V6H38.561V7.248ZM44.2424 6H45.5384V12H44.2424V11.136C43.7544 11.816 43.0544 12.156 42.1424 12.156C41.3184 12.156 40.6144 11.852 40.0304 11.244C39.4464 10.628 39.1544 9.88 39.1544 9C39.1544 8.112 39.4464 7.364 40.0304 6.756C40.6144 6.148 41.3184 5.844 42.1424 5.844C43.0544 5.844 43.7544 6.18 44.2424 6.852V6ZM40.9904 10.38C41.3504 10.74 41.8024 10.92 42.3464 10.92C42.8904 10.92 43.3424 10.74 43.7024 10.38C44.0624 10.012 44.2424 9.552 44.2424 9C44.2424 8.448 44.0624 7.992 43.7024 7.632C43.3424 7.264 42.8904 7.08 42.3464 7.08C41.8024 7.08 41.3504 7.264 40.9904 7.632C40.6304 7.992 40.4504 8.448 40.4504 9C40.4504 9.552 40.6304 10.012 40.9904 10.38ZM47.049 12V3.24H48.345V12H47.049Z" fill="#CACACA"/>
<rect x="59.75" y="0.75" width="14.5" height="14.5" rx="4.25" stroke="#E786D7" stroke-width="1.5"/>
<path d="M86.76 4.92H83.22V7.272H86.64V8.592H83.22V12H81.84V3.6H86.76V4.92ZM90.7989 12.156C89.9189 12.156 89.1709 11.852 88.5549 11.244C87.9389 10.636 87.6309 9.888 87.6309 9C87.6309 8.112 87.9389 7.364 88.5549 6.756C89.1709 6.148 89.9189 5.844 90.7989 5.844C91.6869 5.844 92.4349 6.148 93.0429 6.756C93.6589 7.364 93.9669 8.112 93.9669 9C93.9669 9.888 93.6589 10.636 93.0429 11.244C92.4349 11.852 91.6869 12.156 90.7989 12.156ZM89.4669 10.356C89.8269 10.716 90.2709 10.896 90.7989 10.896C91.3269 10.896 91.7709 10.716 92.1309 10.356C92.4909 9.996 92.6709 9.544 92.6709 9C92.6709 8.456 92.4909 8.004 92.1309 7.644C91.7709 7.284 91.3269 7.104 90.7989 7.104C90.2709 7.104 89.8269 7.284 89.4669 7.644C89.1069 8.004 88.9269 8.456 88.9269 9C88.9269 9.544 89.1069 9.996 89.4669 10.356ZM95.1388 12V3.24H96.4348V12H95.1388ZM97.9396 12V3.24H99.2356V12H97.9396ZM103.572 12.156C102.692 12.156 101.944 11.852 101.328 11.244C100.712 10.636 100.404 9.888 100.404 9C100.404 8.112 100.712 7.364 101.328 6.756C101.944 6.148 102.692 5.844 103.572 5.844C104.46 5.844 105.208 6.148 105.816 6.756C106.432 7.364 106.74 8.112 106.74 9C106.74 9.888 106.432 10.636 105.816 11.244C105.208 11.852 104.46 12.156 103.572 12.156ZM102.24 10.356C102.6 10.716 103.044 10.896 103.572 10.896C104.1 10.896 104.544 10.716 104.904 10.356C105.264 9.996 105.444 9.544 105.444 9C105.444 8.456 105.264 8.004 104.904 7.644C104.544 7.284 104.1 7.104 103.572 7.104C103.044 7.104 102.6 7.284 102.24 7.644C101.88 8.004 101.7 8.456 101.7 9C101.7 9.544 101.88 9.996 102.24 10.356ZM114.59 6H115.958L114.074 12H112.802L111.554 7.956L110.294 12H109.022L107.138 6H108.506L109.67 10.14L110.93 6H112.166L113.414 10.14L114.59 6ZM117.698 9.552C117.794 10.008 118.014 10.36 118.358 10.608C118.702 10.848 119.122 10.968 119.618 10.968C120.306 10.968 120.822 10.72 121.166 10.224L122.234 10.848C121.642 11.72 120.766 12.156 119.606 12.156C118.63 12.156 117.842 11.86 117.242 11.268C116.642 10.668 116.342 9.912 116.342 9C116.342 8.104 116.638 7.356 117.23 6.756C117.822 6.148 118.582 5.844 119.51 5.844C120.39 5.844 121.11 6.152 121.67 6.768C122.238 7.384 122.522 8.132 122.522 9.012C122.522 9.148 122.506 9.328 122.474 9.552H117.698ZM117.686 8.496H121.214C121.126 8.008 120.922 7.64 120.602 7.392C120.29 7.144 119.922 7.02 119.498 7.02C119.018 7.02 118.618 7.152 118.298 7.416C117.978 7.68 117.774 8.04 117.686 8.496ZM124.958 7.008C125.286 6.264 125.902 5.892 126.806 5.892V7.296C126.31 7.264 125.878 7.384 125.51 7.656C125.142 7.92 124.958 8.36 124.958 8.976V12H123.662V6H124.958V7.008Z" fill="#CACACA"/>
</svg>
